<svg xmlns="http://www.w3.org/2000/svg" viewBox="305 344 968 292" fill="none">
<path d="M449 379C453.444 380.481 456.896 381.869 460.938 384.055C462.634 384.968 462.634 384.968 464.365 385.899C465.577 386.558 466.788 387.216 468 387.875C469.258 388.555 470.517 389.234 471.775 389.913C474.933 391.618 478.086 393.329 481.239 395.043C482.871 395.93 484.504 396.816 486.137 397.702C499.12 404.75 512.056 411.881 525 419C525 476.42 525 533.84 525 593C499.92 593 474.84 593 449 593C449 522.38 449 451.76 449 379Z" fill="#FCFCFC"/>
<path d="M402 442C404.671 443.624 404.671 443.624 407 446C407.626 448.964 407.626 448.964 407.628 452.49C407.635 453.14 407.642 453.79 407.65 454.46C407.667 456.636 407.649 458.81 407.631 460.986C407.636 462.547 407.644 464.107 407.653 465.668C407.671 469.906 407.658 474.143 407.639 478.381C407.622 482.814 407.631 487.247 407.636 491.68C407.641 499.125 407.625 506.569 407.597 514.014C407.565 522.623 407.565 531.232 407.582 539.842C407.598 548.121 407.591 556.4 407.574 564.679C407.567 568.204 407.568 571.728 407.576 575.253C407.583 579.403 407.571 583.553 407.544 587.703C407.537 589.227 407.537 590.751 407.544 592.274C407.553 594.353 407.537 596.431 407.515 598.51C407.512 599.673 407.509 600.837 407.506 602.036C406.889 605.648 405.912 606.833 403 609C400.287 609.4 397.978 609.558 395.266 609.533C394.491 609.542 393.717 609.551 392.919 609.56C390.362 609.582 387.807 609.575 385.25 609.566C383.472 609.572 381.693 609.578 379.915 609.585C376.189 609.596 372.464 609.591 368.738 609.576C363.963 609.559 359.189 609.583 354.413 609.618C350.742 609.64 347.07 609.638 343.398 609.63C341.638 609.629 339.877 609.636 338.116 609.651C335.655 609.668 333.196 609.654 330.734 609.631C329.643 609.649 329.643 609.649 328.53 609.667C325.165 609.603 323.265 609.197 320.548 607.174C318.201 602.361 318.451 597.876 318.498 592.588C318.493 591.434 318.487 590.281 318.482 589.093C318.469 585.28 318.486 581.469 318.504 577.656C318.504 575.007 318.502 572.358 318.499 569.71C318.497 564.158 318.51 558.607 318.533 553.055C318.56 546.642 318.562 540.23 318.55 533.817C318.539 527.641 318.545 521.465 318.56 515.289C318.564 512.664 318.564 510.039 318.561 507.414C318.558 503.747 318.574 500.08 318.596 496.412C318.591 495.325 318.587 494.238 318.582 493.118C318.674 483.871 318.674 483.871 322 480C324.359 478.385 324.359 478.385 327.18 476.977C328.239 476.438 329.299 475.899 330.391 475.344C331.541 474.777 332.69 474.21 333.875 473.625C335.08 473.017 336.284 472.408 337.488 471.798C340.022 470.514 342.56 469.237 345.1 467.964C350.85 465.077 356.559 462.111 362.271 459.148C364.116 458.192 365.964 457.24 367.812 456.289C373.028 453.603 378.228 450.899 383.359 448.055C384.138 447.626 384.916 447.198 385.718 446.757C387.092 445.996 388.459 445.224 389.817 444.436C394.037 442.104 397.207 441.327 402 442Z" fill="#090909"/>
<path d="M446 358C449.086 359.278 449.086 359.278 452.375 361.078C453.271 361.561 453.271 361.561 454.185 362.055C456.13 363.108 458.065 364.179 460 365.25C461.362 365.991 462.724 366.732 464.086 367.471C467.46 369.304 470.826 371.151 474.189 373.003C477.569 374.863 480.957 376.708 484.343 378.556C486.035 379.479 487.726 380.404 489.416 381.331C499.267 386.723 509.198 391.966 519.126 397.215C519.794 397.568 520.462 397.921 521.15 398.285C522.971 399.25 524.794 400.213 526.617 401.176C527.733 401.778 528.85 402.38 530 403C530.62 403.311 531.241 403.622 531.88 403.943C536.001 406.098 538.056 407.79 540 412C540.287 414.698 540.414 417.162 540.394 419.857C540.404 421.034 540.404 421.034 540.413 422.235C540.429 424.861 540.425 427.487 540.42 430.113C540.427 431.997 540.436 433.882 540.446 435.766C540.468 440.882 540.471 445.997 540.469 451.113C540.469 455.382 540.477 459.652 540.486 463.921C540.505 473.992 540.508 484.063 540.501 494.134C540.494 504.527 540.517 514.92 540.554 525.314C540.585 534.235 540.596 543.157 540.592 552.079C540.59 557.408 540.596 562.737 540.62 568.067C540.643 573.077 540.641 578.087 540.62 583.097C540.617 584.936 540.622 586.776 540.636 588.615C540.655 591.125 540.642 593.633 540.621 596.143C540.634 596.872 540.646 597.601 540.659 598.353C540.593 602.173 540.085 603.89 537.73 606.952C535.011 608.992 534.009 609.625 530.705 609.628C529.879 609.641 529.054 609.653 528.203 609.666C527.311 609.655 526.419 609.643 525.5 609.631C524.075 609.642 524.075 609.642 522.62 609.653C519.485 609.67 516.351 609.65 513.215 609.629C511.034 609.63 508.854 609.632 506.673 609.636C502.106 609.639 497.54 609.624 492.972 609.597C487.115 609.563 481.259 609.569 475.402 609.588C470.901 609.598 466.4 609.589 461.899 609.574C459.739 609.569 457.579 609.569 455.419 609.576C452.403 609.581 449.387 609.561 446.371 609.533C445.477 609.54 444.583 609.546 443.661 609.553C442.838 609.54 442.016 609.528 441.168 609.515C440.455 609.512 439.743 609.509 439.009 609.506C435.87 608.715 434.846 607.675 433 605C432.404 601.804 432.456 598.647 432.485 595.403C432.478 594.419 432.471 593.435 432.464 592.421C432.446 589.115 432.456 585.809 432.467 582.502C432.459 580.135 432.451 577.768 432.44 575.402C432.42 569.635 432.419 563.868 432.427 558.101C432.433 553.414 432.432 548.726 432.426 544.039C432.425 543.372 432.424 542.706 432.423 542.018C432.421 540.664 432.419 539.309 432.417 537.954C432.401 525.247 432.41 512.54 432.426 499.833C432.441 488.207 432.427 476.581 432.398 464.954C432.368 453.018 432.357 441.081 432.367 429.145C432.368 427.795 432.369 426.445 432.37 425.094C432.37 424.43 432.371 423.766 432.371 423.082C432.373 418.4 432.364 413.72 432.349 409.039C432.331 402.737 432.337 396.436 432.361 390.135C432.366 387.82 432.363 385.505 432.35 383.19C432.334 380.034 432.349 376.879 432.372 373.724C432.354 372.343 432.354 372.343 432.336 370.934C432.402 366.427 432.527 364.596 435.414 360.955C439.233 358.068 441.204 357.626 446 358ZM449 379C449 449.62 449 520.24 449 593C474.08 593 499.16 593 525 593C525 535.58 525 478.16 525 419C507.03 409.192 507.03 409.192 489 399.5C482.138 395.838 475.282 392.167 468.469 388.414C467.458 387.858 466.447 387.302 465.406 386.728C463.519 385.687 461.633 384.642 459.75 383.592C458.915 383.131 458.079 382.67 457.219 382.195C456.496 381.793 455.774 381.391 455.029 380.977C452.745 379.793 452.745 379.793 449 379Z" fill="#0B0B0A"/>
<path fill-rule="evenodd" fill="#0a0a0b" d="M762 484C777.873 495.961 787.12 512.601 791 532C791 538.93 791 545.86 791 553C752.39 553 713.78 553 674 553C677.294 567.821 681.634 580.866 694.234 590.277C707.464 598.518 722.989 600.3 738.254 597.602C742.111 596.574 745.532 594.946 749 593C749.822 592.577 750.645 592.154 751.492 591.719C758.064 587.913 761.904 582.272 766 576C770.402 576.648 774.555 577.648 778.813 578.938C780.524 579.446 780.524 579.446 782.27 579.965C785 581 785 581 786 583C778.902 599.411 764.432 609.293 748.453 615.777C729.69 622.421 708.476 620.127 690.688 611.813C674.315 603.022 663.71 590.153 657 573C656.588 572.09 656.175 571.18 655.75 570.242C649.231 553.628 651.446 531.256 657.754 514.852C666.098 495.756 679.975 483.779 698.891 475.973C720.165 469.318 743.12 472.115 762 484Z M1211 477C1212.57 477.526 1212.57 477.526 1214.16 478.063C1231.51 484.517 1244.18 498.154 1252.08 514.555C1259.44 530.944 1260.98 550.772 1255.2 567.863C1254.8 568.898 1254.41 569.934 1254 571C1253.63 572.045 1253.25 573.091 1252.87 574.168C1245.83 592.554 1232.77 604.937 1215.27 613.164C1196.5 621.515 1176.06 621.098 1156.94 613.875C1137.98 605.46 1124.57 590.198 1117 571C1113.98 562.548 1113.51 554.549 1113.56 545.625C1113.54 544.4 1113.52 543.176 1113.5 541.914C1113.51 523.822 1120.63 507.362 1133.33 494.613C1134.21 493.751 1135.09 492.889 1136 492C1136.63 491.334 1137.27 490.667 1137.92 489.98C1156.65 471.624 1187.24 468.58 1211 477ZM1146 510C1135.76 523.894 1131.92 539.845 1134 557C1137.06 570.195 1144.92 583.183 1156 591C1169.9 599.044 1184.62 601.858 1200.5 598.09C1207.54 596.052 1213.63 593.019 1219 588C1219.85 587.237 1220.69 586.474 1221.56 585.688C1222.37 584.801 1223.17 583.914 1224 583C1224.56 582.388 1225.11 581.775 1225.68 581.145C1237.44 567.269 1238.17 550.35 1237 533C1236.22 528.902 1235.02 525.634 1233 522C1232.55 521.147 1232.11 520.293 1231.64 519.414C1224.57 506.782 1214.91 498.404 1201 494C1199.92 493.652 1198.83 493.304 1197.71 492.945C1178.53 488.064 1158.95 495.631 1146 510Z M901.609 481.383C909.559 486.76 916.892 493.736 919.656 503.262C919.938 505.187 919.938 505.187 920 508C913.639 510.514 907.84 512.484 901 513C900.598 512.022 900.598 512.022 900.188 511.023C896.224 502.183 891.474 498.132 882.5 494.625C871.421 491.292 859.342 491.545 849 497C844.524 499.753 841.702 502.987 840 508C839.35 512.921 839.437 516.758 841.5 521.312C849.361 529.763 860.156 531.965 871.059 534.336C890.322 538.527 906.379 542.254 919.5 558C923.979 566.958 925.075 579.26 922.465 588.995C918.369 600.436 910.519 607.974 899.875 613.375C882.233 620.821 861.216 621.641 843.367 614.559C830.654 608.641 820.591 600.347 815.688 587.062C815.114 585.379 814.548 583.692 814 582C828.738 576 828.738 576 834 576C834.34 576.713 834.681 577.426 835.031 578.16C840.304 588.58 846.18 594.223 857.309 598.117C869.618 601.061 882.472 599.531 893.684 593.574C897.435 591.024 899.382 588.228 901 584C901.862 578.785 902.221 573.645 899.961 568.75C893.872 560.858 883.178 559.102 874 557.062C871.775 556.544 869.551 556.024 867.328 555.5C866.249 555.246 865.169 554.992 864.057 554.73C847.245 550.713 831.473 546.156 821.629 530.871C817.208 522.076 817.786 510.375 819.59 500.902C822.974 491.063 831.776 482.534 841 478C845.279 476.433 849.593 475.151 854 474C854.638 473.824 855.276 473.648 855.933 473.467C870.836 470.098 888.684 473.605 901.609 481.383Z M968 439C974.6 439 981.2 439 988 439C988 451.21 988 463.42 988 476C1000.54 476 1013.08 476 1026 476C1026 481.94 1026 487.88 1026 494C1013.46 494 1000.92 494 988 494C988.063 505.614 988.138 517.227 988.236 528.841C988.28 534.234 988.32 539.627 988.346 545.02C988.372 550.226 988.413 555.433 988.463 560.639C988.48 562.624 988.491 564.608 988.498 566.592C988.507 569.376 988.535 572.16 988.568 574.944C988.566 575.76 988.565 576.576 988.563 577.418C988.666 583.716 989.689 588.75 994.375 593.312C1002.16 598.314 1011.3 598.202 1020.2 596.324C1022.51 595.629 1024.76 594.886 1027 594C1027.34 596.187 1027.67 598.374 1028 600.562C1028.19 601.781 1028.37 602.999 1028.56 604.254C1028.99 607.876 1029.08 611.357 1029 615C1014.6 619.209 998.357 620.485 984.477 613.781C978.684 610.317 975.12 605.932 972 600C971.508 599.069 971.508 599.069 971.006 598.119C968.154 592.304 967.439 587.592 967.546 581.166C967.545 580.228 967.545 579.29 967.544 578.324C967.547 575.256 967.578 572.189 967.609 569.121C967.617 566.982 967.623 564.842 967.627 562.703C967.642 557.095 967.681 551.488 967.725 545.88C967.766 540.149 967.785 534.417 967.805 528.686C967.847 517.457 967.918 506.229 968 495C959.42 495 950.84 495 942 495C942 488.73 942 482.46 942 476C950.58 476 959.16 476 968 476C968 463.79 968 451.58 968 439Z M750.973 499.828C760.781 507.107 766.865 517.255 770 529C770 531.31 770 533.62 770 536C738.32 536 706.64 536 674 536C674 524.451 679.148 514.33 686.961 505.879C704.726 488.916 730.399 487.176 750.973 499.828Z M1061 476C1067.93 476 1074.86 476 1082 476C1082 522.2 1082 568.4 1082 616C1075.4 616 1068.8 616 1062 616C1061 615 1061 615 1060.88 612.706C1060.88 611.682 1060.88 610.658 1060.88 609.603C1060.88 608.432 1060.88 607.261 1060.88 606.054C1060.88 604.758 1060.88 603.462 1060.89 602.127C1060.89 600.757 1060.89 599.388 1060.89 598.018C1060.89 594.289 1060.89 590.56 1060.9 586.83C1060.9 582.937 1060.91 579.044 1060.91 575.151C1060.91 567.774 1060.92 560.397 1060.93 553.02C1060.94 544.623 1060.94 536.227 1060.95 527.83C1060.96 510.554 1060.98 493.277 1061 476Z M1079.84 421.945C1082.66 424.028 1084.03 426.062 1085.44 429.25C1086.2 434.337 1086.54 439.197 1083.99 443.836C1081.45 447.118 1079.02 449.044 1075 450C1069.76 450.476 1066.39 449.957 1062 447C1058.27 443.47 1056.66 440.142 1056.38 435C1056.66 429.864 1058.2 426.473 1062 423C1067.73 419.474 1073.77 418.82 1079.84 421.945Z M674 553C712.61 553 751.22 553 791 553C791 553.33 791 553.66 791 554C734.57 554.495 734.57 554.495 677 555C676.34 556.65 675.68 558.3 675 560C674.67 560 674.34 560 674 560C674 557.69 674 555.38 674 553Z M674 553C682.91 553 691.82 553 701 553C701 553.33 701 553.66 701 554C693.08 554.33 685.16 554.66 677 555C676.34 556.65 675.68 558.3 675 560C674.67 560 674.34 560 674 560C674 557.69 674 555.38 674 553Z"/>
</svg>
