<svg xmlns="http://www.w3.org/2000/svg" viewBox="305 344 968 292" fill="none"><path fill-rule="evenodd" fill="#0a0a0b" d="M460 380C464.018 381.339 467.194 382.482 470.844 384.398C471.749 384.872 472.654 385.345 473.586 385.832C474.548 386.341 475.509 386.85 476.5 387.375C477.513 387.907 478.526 388.44 479.57 388.988C487.32 393.075 495.015 397.259 502.691 401.48C510.533 405.78 518.454 409.916 526.414 413.992C527.319 414.459 528.224 414.925 529.156 415.406C529.948 415.812 530.741 416.217 531.557 416.635C532.363 417.085 533.169 417.536 534 418C535.026 418.537 536.051 419.075 537.108 419.628C540 422 540 422 540.738 425.303C540.763 426.64 540.755 427.978 540.722 429.315C540.727 430.053 540.732 430.791 540.737 431.552C540.747 434.028 540.714 436.502 540.681 438.978C540.679 440.752 540.68 442.525 540.684 444.299C540.686 449.118 540.65 453.935 540.608 458.753C540.571 463.787 540.567 468.821 540.56 473.855C540.542 483.389 540.492 492.923 540.432 502.457C540.353 515.339 540.32 528.222 540.285 541.104C540.229 561.403 540.109 581.701 540 602C513.6 602 487.2 602 460 602C460 528.74 460 455.48 460 380Z M410 446C413.096 447.541 414.217 448.151 416 451C416.928 456.174 416.789 461.339 416.729 466.575C416.732 468.186 416.738 469.798 416.746 471.41C416.76 475.782 416.738 480.153 416.707 484.525C416.681 489.098 416.686 493.672 416.687 498.246C416.684 505.924 416.658 513.602 416.617 521.281C416.57 530.163 416.554 539.045 416.557 547.928C416.558 556.47 416.543 565.011 416.518 573.552C416.508 577.189 416.502 580.826 416.5 584.464C416.497 588.743 416.479 593.023 416.449 597.302C416.44 598.875 416.437 600.448 416.438 602.02C416.44 604.163 416.423 606.304 416.401 608.447C416.396 609.647 416.391 610.847 416.386 612.084C416 615 416 615 414.705 616.886C411.68 618.862 408.127 618.414 404.629 618.388C403.348 618.396 403.348 618.396 402.041 618.404C399.215 618.417 396.389 618.409 393.562 618.398C391.601 618.4 389.639 618.403 387.678 618.407C383.565 618.412 379.453 618.405 375.341 618.391C370.064 618.374 364.789 618.384 359.512 618.402C355.461 618.413 351.411 618.409 347.36 618.401C345.414 618.399 343.468 618.402 341.523 618.409C338.805 618.416 336.088 618.405 333.371 618.388C332.564 618.394 331.756 618.4 330.924 618.407C325.486 618.344 325.486 618.344 323.294 616.791C321.571 614.407 321.618 612.896 321.605 609.965C321.594 608.925 321.583 607.885 321.571 606.813C321.574 605.672 321.577 604.531 321.58 603.356C321.567 601.553 321.567 601.553 321.554 599.714C321.535 596.416 321.529 593.119 321.531 589.821C321.531 587.068 321.523 584.314 321.514 581.561C321.495 575.064 321.492 568.567 321.499 562.07C321.506 555.37 321.483 548.67 321.446 541.97C321.415 536.216 321.404 530.462 321.407 524.709C321.41 521.273 321.404 517.837 321.38 514.401C321.353 510.568 321.367 506.736 321.385 502.903C321.371 501.766 321.358 500.629 321.344 499.458C321.427 491.757 321.427 491.757 324.384 487.85C326.898 486.072 329.296 484.573 332.07 483.238C333.039 482.765 334.007 482.291 335.005 481.803C336.035 481.311 337.064 480.819 338.125 480.312C340.309 479.245 342.493 478.176 344.676 477.105C345.754 476.579 346.833 476.052 347.944 475.509C352.106 473.454 356.214 471.305 360.312 469.125C365.839 466.191 371.376 463.28 376.934 460.406C377.537 460.094 378.141 459.782 378.763 459.46C381.758 457.912 384.754 456.365 387.751 454.821C394.495 451.343 394.495 451.343 401.105 447.621C404.503 445.718 406.173 445.267 410 446Z M762 484C777.873 495.961 787.12 512.601 791 532C791 538.93 791 545.86 791 553C752.39 553 713.78 553 674 553C677.294 567.821 681.634 580.866 694.234 590.277C707.464 598.518 722.989 600.3 738.254 597.602C742.111 596.574 745.532 594.946 749 593C749.822 592.577 750.645 592.154 751.492 591.719C758.064 587.913 761.904 582.272 766 576C770.402 576.648 774.555 577.648 778.813 578.938C780.524 579.446 780.524 579.446 782.27 579.965C785 581 785 581 786 583C778.902 599.411 764.432 609.293 748.453 615.777C729.69 622.421 708.476 620.127 690.688 611.813C674.315 603.022 663.71 590.153 657 573C656.588 572.09 656.175 571.18 655.75 570.242C649.231 553.628 651.446 531.256 657.754 514.852C666.098 495.756 679.975 483.779 698.891 475.973C720.165 469.318 743.12 472.115 762 484Z M457 359C461.006 360.646 464.766 362.673 468.562 364.75C469.665 365.338 470.768 365.927 471.904 366.533C475.278 368.339 478.641 370.166 482 372C482.971 372.528 483.942 373.056 484.942 373.6C488.574 375.577 492.204 377.557 495.828 379.548C502.341 383.121 508.905 386.582 515.5 390C523.381 394.095 531.243 398.224 539.062 402.438C539.973 402.922 540.883 403.406 541.82 403.904C542.675 404.368 543.53 404.831 544.41 405.309C545.154 405.709 545.898 406.109 546.664 406.521C552.881 410.457 552.881 410.457 555 413C555.601 416.004 555.806 418.206 555.748 421.205C555.756 422.027 555.764 422.85 555.772 423.697C555.792 426.45 555.768 429.202 555.745 431.955C555.749 433.93 555.757 435.904 555.767 437.879C555.785 443.241 555.767 448.601 555.74 453.963C555.717 459.571 555.726 465.178 555.73 470.786C555.731 480.202 555.709 489.618 555.672 499.034C555.63 509.926 555.623 520.818 555.635 531.71C555.647 542.183 555.636 552.655 555.613 563.127C555.604 567.586 555.602 572.046 555.606 576.506C555.61 581.755 555.594 587.003 555.562 592.252C555.554 594.181 555.552 596.11 555.557 598.038C555.564 600.666 555.546 603.294 555.521 605.922C555.533 607.072 555.533 607.072 555.544 608.246C555.488 611.659 555.241 613.661 553.24 616.473C550.762 618.162 549.6 618.502 546.636 618.508C545.336 618.525 545.336 618.525 544.01 618.542C542.596 618.53 542.596 618.53 541.154 618.518C539.656 618.528 539.656 618.528 538.128 618.539C534.824 618.556 531.522 618.545 528.219 618.531C525.925 618.534 523.631 618.538 521.337 618.543C516.528 618.549 511.72 618.54 506.912 618.522C500.744 618.499 494.577 618.512 488.41 618.536C483.673 618.55 478.936 618.546 474.198 618.535C471.924 618.533 469.65 618.536 467.376 618.545C464.199 618.555 461.023 618.54 457.846 618.518C456.903 618.526 455.961 618.534 454.99 618.542C454.123 618.531 453.257 618.52 452.364 618.508C451.238 618.506 451.238 618.506 450.09 618.503C446.876 617.729 445.869 616.75 444 614C443.4 610.691 443.452 607.417 443.479 604.062C443.471 603.041 443.463 602.02 443.455 600.968C443.435 597.537 443.443 594.107 443.451 590.676C443.442 588.221 443.432 585.765 443.42 583.31C443.396 577.326 443.391 571.343 443.395 565.359C443.399 560.496 443.395 555.633 443.387 550.77C443.386 550.078 443.384 549.386 443.383 548.673C443.381 547.268 443.378 545.862 443.376 544.457C443.354 531.273 443.358 518.09 443.371 504.907C443.381 492.844 443.358 480.781 443.32 468.718C443.282 456.334 443.265 443.95 443.273 431.566C443.277 424.612 443.272 417.659 443.243 410.705C443.217 404.168 443.222 397.631 443.248 391.093C443.253 388.691 443.247 386.288 443.231 383.886C443.21 380.612 443.226 377.34 443.251 374.065C443.237 373.11 443.222 372.154 443.207 371.17C443.309 364.924 443.309 364.924 445.275 362.294C449.207 358.845 451.894 358.108 457 359ZM460 380C460 453.26 460 526.52 460 602C486.4 602 512.8 602 540 602C540 542.6 540 483.2 540 422C531.702 417.258 523.486 412.603 515 408.25C507.199 404.215 499.45 400.1 491.75 395.875C484.605 391.959 477.448 388.069 470.25 384.25C469.445 383.819 468.641 383.389 467.811 382.945C464.109 380.783 464.109 380.783 460 380Z M1211 477C1212.57 477.526 1212.57 477.526 1214.16 478.063C1231.51 484.517 1244.18 498.154 1252.08 514.555C1259.44 530.944 1260.98 550.772 1255.2 567.863C1254.8 568.898 1254.41 569.934 1254 571C1253.63 572.045 1253.25 573.091 1252.87 574.168C1245.83 592.554 1232.77 604.937 1215.27 613.164C1196.5 621.515 1176.06 621.098 1156.94 613.875C1137.98 605.46 1124.57 590.198 1117 571C1113.98 562.548 1113.51 554.549 1113.56 545.625C1113.54 544.4 1113.52 543.176 1113.5 541.914C1113.51 523.822 1120.63 507.362 1133.33 494.613C1134.21 493.751 1135.09 492.889 1136 492C1136.63 491.334 1137.27 490.667 1137.92 489.98C1156.65 471.624 1187.24 468.58 1211 477ZM1146 510C1135.76 523.894 1131.92 539.845 1134 557C1137.06 570.195 1144.92 583.183 1156 591C1169.9 599.044 1184.62 601.858 1200.5 598.09C1207.54 596.052 1213.63 593.019 1219 588C1219.85 587.237 1220.69 586.474 1221.56 585.688C1222.37 584.801 1223.17 583.914 1224 583C1224.56 582.388 1225.11 581.775 1225.68 581.145C1237.44 567.269 1238.17 550.35 1237 533C1236.22 528.902 1235.02 525.634 1233 522C1232.55 521.147 1232.11 520.293 1231.64 519.414C1224.57 506.782 1214.91 498.404 1201 494C1199.92 493.652 1198.83 493.304 1197.71 492.945C1178.53 488.064 1158.95 495.631 1146 510Z M901.609 481.383C909.559 486.76 916.892 493.736 919.656 503.262C919.938 505.187 919.938 505.187 920 508C913.639 510.514 907.84 512.484 901 513C900.598 512.022 900.598 512.022 900.188 511.023C896.224 502.183 891.474 498.132 882.5 494.625C871.421 491.292 859.342 491.545 849 497C844.524 499.753 841.702 502.987 840 508C839.35 512.921 839.437 516.758 841.5 521.312C849.361 529.763 860.156 531.965 871.059 534.336C890.322 538.527 906.379 542.254 919.5 558C923.979 566.958 925.075 579.26 922.465 588.995C918.369 600.436 910.519 607.974 899.875 613.375C882.233 620.821 861.216 621.641 843.367 614.559C830.654 608.641 820.591 600.347 815.688 587.062C815.114 585.379 814.548 583.692 814 582C828.738 576 828.738 576 834 576C834.34 576.713 834.681 577.426 835.031 578.16C840.304 588.58 846.18 594.223 857.309 598.117C869.618 601.061 882.472 599.531 893.684 593.574C897.435 591.024 899.382 588.228 901 584C901.862 578.785 902.221 573.645 899.961 568.75C893.872 560.858 883.178 559.102 874 557.062C871.775 556.544 869.551 556.024 867.328 555.5C866.249 555.246 865.169 554.992 864.057 554.73C847.245 550.713 831.473 546.156 821.629 530.871C817.208 522.076 817.786 510.375 819.59 500.902C822.974 491.063 831.776 482.534 841 478C845.279 476.433 849.593 475.151 854 474C854.638 473.824 855.276 473.648 855.933 473.467C870.836 470.098 888.684 473.605 901.609 481.383Z M968 439C974.6 439 981.2 439 988 439C988 451.21 988 463.42 988 476C1000.54 476 1013.08 476 1026 476C1026 481.94 1026 487.88 1026 494C1013.46 494 1000.92 494 988 494C988.063 505.614 988.138 517.227 988.236 528.841C988.28 534.234 988.32 539.627 988.346 545.02C988.372 550.226 988.413 555.433 988.463 560.639C988.48 562.624 988.491 564.608 988.498 566.592C988.507 569.376 988.535 572.16 988.568 574.944C988.566 575.76 988.565 576.576 988.563 577.418C988.666 583.716 989.689 588.75 994.375 593.312C1002.16 598.314 1011.3 598.202 1020.2 596.324C1022.51 595.629 1024.76 594.886 1027 594C1027.34 596.187 1027.67 598.374 1028 600.562C1028.19 601.781 1028.37 602.999 1028.56 604.254C1028.99 607.876 1029.08 611.357 1029 615C1014.6 619.209 998.357 620.485 984.477 613.781C978.684 610.317 975.12 605.932 972 600C971.508 599.069 971.508 599.069 971.006 598.119C968.154 592.304 967.439 587.592 967.546 581.166C967.545 580.228 967.545 579.29 967.544 578.324C967.547 575.256 967.578 572.189 967.609 569.121C967.617 566.982 967.623 564.842 967.627 562.703C967.642 557.095 967.681 551.488 967.725 545.88C967.766 540.149 967.785 534.417 967.805 528.686C967.847 517.457 967.918 506.229 968 495C959.42 495 950.84 495 942 495C942 488.73 942 482.46 942 476C950.58 476 959.16 476 968 476C968 463.79 968 451.58 968 439Z M750.973 499.828C760.781 507.107 766.865 517.255 770 529C770 531.31 770 533.62 770 536C738.32 536 706.64 536 674 536C674 524.451 679.148 514.33 686.961 505.879C704.726 488.916 730.399 487.176 750.973 499.828Z M1061 476C1067.93 476 1074.86 476 1082 476C1082 522.2 1082 568.4 1082 616C1075.4 616 1068.8 616 1062 616C1061 615 1061 615 1060.88 612.706C1060.88 611.682 1060.88 610.658 1060.88 609.603C1060.88 608.432 1060.88 607.261 1060.88 606.054C1060.88 604.758 1060.88 603.462 1060.89 602.127C1060.89 600.757 1060.89 599.388 1060.89 598.018C1060.89 594.289 1060.89 590.56 1060.9 586.83C1060.9 582.937 1060.91 579.044 1060.91 575.151C1060.91 567.774 1060.92 560.397 1060.93 553.02C1060.94 544.623 1060.94 536.227 1060.95 527.83C1060.96 510.554 1060.98 493.277 1061 476Z M1079.84 421.945C1082.66 424.028 1084.03 426.062 1085.44 429.25C1086.2 434.337 1086.54 439.197 1083.99 443.836C1081.45 447.118 1079.02 449.044 1075 450C1069.76 450.476 1066.39 449.957 1062 447C1058.27 443.47 1056.66 440.142 1056.38 435C1056.66 429.864 1058.2 426.473 1062 423C1067.73 419.474 1073.77 418.82 1079.84 421.945Z M674 553C712.61 553 751.22 553 791 553C791 553.33 791 553.66 791 554C734.57 554.495 734.57 554.495 677 555C676.34 556.65 675.68 558.3 675 560C674.67 560 674.34 560 674 560C674 557.69 674 555.38 674 553Z M674 553C682.91 553 691.82 553 701 553C701 553.33 701 553.66 701 554C693.08 554.33 685.16 554.66 677 555C676.34 556.65 675.68 558.3 675 560C674.67 560 674.34 560 674 560C674 557.69 674 555.38 674 553Z"/></svg>
