<svg xmlns="http://www.w3.org/2000/svg" viewBox="305 344 968 292" fill="none">
<path d="M449 379C453.444 380.481 456.896 381.869 460.938 384.055C462.634 384.968 462.634 384.968 464.365 385.899C465.577 386.558 466.788 387.216 468 387.875C469.258 388.555 470.517 389.234 471.775 389.913C474.933 391.618 478.086 393.329 481.239 395.043C482.871 395.93 484.504 396.816 486.137 397.702C499.12 404.75 512.056 411.881 525 419C525 476.42 525 533.84 525 593C499.92 593 474.84 593 449 593C449 522.38 449 451.76 449 379Z" fill="#f5f4f1"/>
<path d="M402 442C404.671 443.624 404.671 443.624 407 446C407.626 448.964 407.626 448.964 407.628 452.49C407.635 453.14 407.642 453.79 407.65 454.46C407.667 456.636 407.649 458.81 407.631 460.986C407.636 462.547 407.644 464.107 407.653 465.668C407.671 469.906 407.658 474.143 407.639 478.381C407.622 482.814 407.631 487.247 407.636 491.68C407.641 499.125 407.625 506.569 407.597 514.014C407.565 522.623 407.565 531.232 407.582 539.842C407.598 548.121 407.591 556.4 407.574 564.679C407.567 568.204 407.568 571.728 407.576 575.253C407.583 579.403 407.571 583.553 407.544 587.703C407.537 589.227 407.537 590.751 407.544 592.274C407.553 594.353 407.537 596.431 407.515 598.51C407.512 599.673 407.509 600.837 407.506 602.036C406.889 605.648 405.912 606.833 403 609C400.287 609.4 397.978 609.558 395.266 609.533C394.491 609.542 393.717 609.551 392.919 609.56C390.362 609.582 387.807 609.575 385.25 609.566C383.472 609.572 381.693 609.578 379.915 609.585C376.189 609.596 372.464 609.591 368.738 609.576C363.963 609.559 359.189 609.583 354.413 609.618C350.742 609.64 347.07 609.638 343.398 609.63C341.638 609.629 339.877 609.636 338.116 609.651C335.655 609.668 333.196 609.654 330.734 609.631C329.643 609.649 329.643 609.649 328.53 609.667C325.165 609.603 323.265 609.197 320.548 607.174C318.201 602.361 318.451 597.876 318.498 592.588C318.493 591.434 318.487 590.281 318.482 589.093C318.469 585.28 318.486 581.469 318.504 577.656C318.504 575.007 318.502 572.358 318.499 569.71C318.497 564.158 318.51 558.607 318.533 553.055C318.56 546.642 318.562 540.23 318.55 533.817C318.539 527.641 318.545 521.465 318.56 515.289C318.564 512.664 318.564 510.039 318.561 507.414C318.558 503.747 318.574 500.08 318.596 496.412C318.591 495.325 318.587 494.238 318.582 493.118C318.674 483.871 318.674 483.871 322 480C324.359 478.385 324.359 478.385 327.18 476.977C328.239 476.438 329.299 475.899 330.391 475.344C331.541 474.777 332.69 474.21 333.875 473.625C335.08 473.017 336.284 472.408 337.488 471.798C340.022 470.514 342.56 469.237 345.1 467.964C350.85 465.077 356.559 462.111 362.271 459.148C364.116 458.192 365.964 457.24 367.812 456.289C373.028 453.603 378.228 450.899 383.359 448.055C384.138 447.626 384.916 447.198 385.718 446.757C387.092 445.996 388.459 445.224 389.817 444.436C394.037 442.104 397.207 441.327 402 442Z" fill="#090909"/>
<path d="M717.891 461.805C734.913 461.176 752.099 466.934 765 478C766.011 478.743 767.021 479.485 768.063 480.25C774.9 486.124 779.278 493.993 782.875 502.125C783.161 502.769 783.447 503.414 783.742 504.077C789.026 516.628 788 526.888 788 541C750.05 541 712.1 541 673 541C675.696 554.479 679.399 566.291 690.61 575.035C703.509 583.616 717.67 587.349 733.078 584.634C746.471 581.464 756.348 574.282 764 563C768.266 563.62 772.22 564.587 776.313 565.938C777.885 566.446 777.885 566.446 779.488 566.965C782 568 782 568 783 570C778.04 581.956 767.338 591.294 756 597C755.273 597.376 754.546 597.753 753.797 598.141C743.695 603.01 733.312 604.543 722.188 604.438C720.481 604.425 720.481 604.425 718.74 604.412C699.867 604.035 683.623 597.291 670 584C655.171 567.297 649.985 547.309 650.83 525.456C652.188 505.889 662.208 489.931 676.246 476.918C688.009 467.011 702.864 462.82 717.891 461.805Z" fill="#0B0B0B"/>
<path d="M446 358C449.086 359.278 449.086 359.278 452.375 361.078C453.271 361.561 453.271 361.561 454.185 362.055C456.13 363.108 458.065 364.179 460 365.25C461.362 365.991 462.724 366.732 464.086 367.471C467.46 369.304 470.826 371.151 474.189 373.003C477.569 374.863 480.957 376.708 484.343 378.556C486.035 379.479 487.726 380.404 489.416 381.331C499.267 386.723 509.198 391.966 519.126 397.215C519.794 397.568 520.462 397.921 521.15 398.285C522.971 399.25 524.794 400.213 526.617 401.176C527.733 401.778 528.85 402.38 530 403C530.62 403.311 531.241 403.622 531.88 403.943C536.001 406.098 538.056 407.79 540 412C540.287 414.698 540.414 417.162 540.394 419.857C540.404 421.034 540.404 421.034 540.413 422.235C540.429 424.861 540.425 427.487 540.42 430.113C540.427 431.997 540.436 433.882 540.446 435.766C540.468 440.882 540.471 445.997 540.469 451.113C540.469 455.382 540.477 459.652 540.486 463.921C540.505 473.992 540.508 484.063 540.501 494.134C540.494 504.527 540.517 514.92 540.554 525.314C540.585 534.235 540.596 543.157 540.592 552.079C540.59 557.408 540.596 562.737 540.62 568.067C540.643 573.077 540.641 578.087 540.62 583.097C540.617 584.936 540.622 586.776 540.636 588.615C540.655 591.125 540.642 593.633 540.621 596.143C540.634 596.872 540.646 597.601 540.659 598.353C540.593 602.173 540.085 603.89 537.73 606.952C535.011 608.992 534.009 609.625 530.705 609.628C529.879 609.641 529.054 609.653 528.203 609.666C527.311 609.655 526.419 609.643 525.5 609.631C524.075 609.642 524.075 609.642 522.62 609.653C519.485 609.67 516.351 609.65 513.215 609.629C511.034 609.63 508.854 609.632 506.673 609.636C502.106 609.639 497.54 609.624 492.972 609.597C487.115 609.563 481.259 609.569 475.402 609.588C470.901 609.598 466.4 609.589 461.899 609.574C459.739 609.569 457.579 609.569 455.419 609.576C452.403 609.581 449.387 609.561 446.371 609.533C445.477 609.54 444.583 609.546 443.661 609.553C442.838 609.54 442.016 609.528 441.168 609.515C440.455 609.512 439.743 609.509 439.009 609.506C435.87 608.715 434.846 607.675 433 605C432.404 601.804 432.456 598.647 432.485 595.403C432.478 594.419 432.471 593.435 432.464 592.421C432.446 589.115 432.456 585.809 432.467 582.502C432.459 580.135 432.451 577.768 432.44 575.402C432.42 569.635 432.419 563.868 432.427 558.101C432.433 553.414 432.432 548.726 432.426 544.039C432.425 543.372 432.424 542.706 432.423 542.018C432.421 540.664 432.419 539.309 432.417 537.954C432.401 525.247 432.41 512.54 432.426 499.833C432.441 488.207 432.427 476.581 432.398 464.954C432.368 453.018 432.357 441.081 432.367 429.145C432.368 427.795 432.369 426.445 432.37 425.094C432.37 424.43 432.371 423.766 432.371 423.082C432.373 418.4 432.364 413.72 432.349 409.039C432.331 402.737 432.337 396.436 432.361 390.135C432.366 387.82 432.363 385.505 432.35 383.19C432.334 380.034 432.349 376.879 432.372 373.724C432.354 372.343 432.354 372.343 432.336 370.934C432.402 366.427 432.527 364.596 435.414 360.955C439.233 358.068 441.204 357.626 446 358ZM449 379C449 449.62 449 520.24 449 593C474.08 593 499.16 593 525 593C525 535.58 525 478.16 525 419C507.03 409.192 507.03 409.192 489 399.5C482.138 395.838 475.282 392.167 468.469 388.414C467.458 387.858 466.447 387.302 465.406 386.728C463.519 385.687 461.633 384.642 459.75 383.592C458.915 383.131 458.079 382.67 457.219 382.195C456.496 381.793 455.774 381.391 455.029 380.977C452.745 379.793 452.745 379.793 449 379Z" fill="#0B0B0A"/>
<path d="M1220.25 474.687C1234.98 485.526 1245.33 501.107 1248.58 519.25C1251 540.956 1247.76 561.479 1234 579C1233.43 579.761 1232.86 580.521 1232.27 581.305C1222.08 593.886 1205.81 601.557 1190 604C1185.89 604.294 1181.81 604.325 1177.69 604.312C1176.64 604.329 1175.59 604.345 1174.5 604.361C1164 604.368 1154.34 602.265 1145 597.437C1143.99 596.92 1143.99 596.92 1142.96 596.392C1125.91 587.291 1114.57 572.511 1108.75 554.184C1103.31 535.625 1105.19 516.252 1114 499C1124.15 481.324 1139.26 469.834 1158.85 464.161C1179.45 458.701 1202.74 462.423 1220.25 474.687ZM1147 491C1146.38 491.428 1145.76 491.856 1145.12 492.297C1135.14 499.904 1129.64 512.026 1127 524C1125.04 540.564 1129.87 555.616 1139.19 569.187C1149.46 579.458 1162.22 585.868 1176.88 586.312C1188.5 586.17 1199.62 582.859 1209 576C1210.05 575.257 1211.1 574.515 1212.19 573.75C1223.08 563.096 1228.64 548.852 1229.31 533.75C1228.81 517.299 1222.91 504.311 1211 493C1200.85 484.302 1188.48 480.56 1175.2 480.723C1164.82 481.623 1155.42 484.89 1147 491Z" fill="#0B0B0B"/>
<path d="M899.965 472.438C900.636 472.953 901.308 473.469 902 474C903.249 474.915 903.249 474.915 904.523 475.848C907.2 478.174 908.829 480.426 910.688 483.438C911.269 484.364 911.85 485.291 912.449 486.246C914.513 489.911 916 492.76 916 497C913.397 497.839 910.793 498.671 908.188 499.5C907.45 499.738 906.712 499.977 905.951 500.223C902.867 501.199 900.255 502 897 502C896.671 501.276 896.343 500.551 896.004 499.805C891.559 490.771 886.378 486.456 877 483C864.812 480.407 852.616 481.082 842 487.938C838.08 491.98 836.57 495.292 836.562 500.938C836.749 506.182 837.065 509.244 841 513C849.571 518.223 858.38 520.64 868.125 522.688C905.355 530.751 905.355 530.751 914.812 544.938C919.828 553 920.101 562.801 919 572C916.201 582.958 909.875 590.76 900.387 596.688C889.351 602.756 878.646 604.349 866.188 604.313C864.539 604.337 864.539 604.337 862.857 604.361C846.804 604.371 832.725 599.3 820.938 588.184C817.656 584.485 815.269 580.374 813 576C812.617 575.325 812.234 574.649 811.84 573.953C811 572 811 572 811 568C813.393 567.157 815.789 566.326 818.188 565.5C819.198 565.142 819.198 565.142 820.229 564.777C823.932 563.513 827.079 562.696 831 563C831.268 563.641 831.536 564.281 831.812 564.941C835.997 574.177 841.499 579.353 850.824 583.273C861.505 586.84 875.108 586.35 885.504 582.27C890.109 579.927 893.822 577.372 896.152 572.68C898.072 566.61 898.146 560.252 895.25 554.563C886.993 546.711 872.74 544.999 862 542.5C829.359 534.904 829.359 534.904 820.34 522.766C814.845 513.474 813.51 503.078 815.465 492.48C818.987 480.58 827.109 473.054 837.75 467.25C856.996 458.237 882.541 460.083 899.965 472.438Z" fill="#0B0B0A"/>
<path d="M963 429C969.6 429 976.2 429 983 429C983 440.88 983 452.76 983 465C995.54 465 1008.08 465 1021 465C1021 471.27 1021 477.54 1021 484C1008.46 484 995.92 484 983 484C983.062 498.888 983.062 498.888 983.16 513.775C983.208 519.852 983.252 525.928 983.271 532.005C983.286 536.907 983.321 541.809 983.368 546.711C983.383 548.576 983.391 550.441 983.392 552.307C982.984 565.806 982.984 565.806 988 578C992.87 582.751 997.067 583.194 1003.62 583.188C1004.34 583.188 1005.05 583.189 1005.79 583.189C1011.11 583.136 1015.87 582.467 1021 581C1022.17 587.378 1023.3 593.503 1023 600C1021.63 600.485 1020.25 600.963 1018.88 601.438C1018.11 601.704 1017.34 601.971 1016.55 602.246C1003.73 606.032 989.428 605.102 977.625 598.715C969.62 593.272 965.372 585.185 963 576C962.624 572.834 962.618 569.719 962.659 566.533C962.659 565.185 962.659 565.185 962.658 563.81C962.66 560.872 962.683 557.934 962.707 554.996C962.713 552.946 962.717 550.896 962.72 548.847C962.731 543.476 962.761 538.105 962.794 532.734C962.825 527.244 962.838 521.754 962.854 516.264C962.886 505.509 962.938 494.755 963 484C954.42 484 945.84 484 937 484C937 478.06 937 472.12 937 466C945.58 466 954.16 466 963 466C963 453.79 963 441.58 963 429Z" fill="#0A0A0A"/>
<path d="M748.012 488.898C757.195 495.844 763.365 505.094 767 516C767 518.64 767 521.28 767 524C735.65 524 704.3 524 672 524C674.697 509.164 679.495 498.575 691.5 489.312C709.19 477.679 730.224 477.686 748.012 488.898Z" fill="#f5f4f1"/>
<path d="M1055 465C1061.93 465 1068.86 465 1076 465C1076 509.88 1076 554.76 1076 601C1069.07 601 1062.14 601 1055 601C1055 556.12 1055 511.24 1055 465Z" fill="#0D0D0D"/>
<path d="M1075 415C1077.7 417.335 1078.85 419.01 1079.39 422.559C1079.57 427.179 1079.34 430.294 1077.31 434.5C1073.26 438.879 1070.51 440.193 1064.56 440.5C1060.82 440.399 1058.39 440.11 1055.44 437.75C1051.27 433.045 1050.55 429.663 1050.68 423.473C1051.27 418.895 1053.68 416.193 1057 413.187C1063 409.625 1069.53 410.862 1075 415Z" fill="#0C0C0C"/>
</svg>
