<svg viewBox="302.62 340.98 962.69 284.72" fill="none" xmlns="http://www.w3.org/2000/svg">
  <path d="M450.429 360.096C453.298 361.593 456.12 363.157 458.938 364.75C461.09 365.942 463.242 367.133 465.395 368.324C466.491 368.936 467.588 369.547 468.717 370.177C473.83 373.016 478.978 375.787 484.125 378.562C490.023 381.754 495.917 384.952 501.801 388.168C502.739 388.681 503.678 389.194 504.645 389.722C506.485 390.729 508.325 391.736 510.164 392.744C514.426 395.075 518.698 397.376 523.012 399.609C523.793 400.015 524.574 400.421 525.379 400.839C526.824 401.586 528.272 402.327 529.724 403.06C534.587 405.574 538.226 407.678 540 413C540.104 415.535 540.152 418.043 540.154 420.578C540.161 421.747 540.161 421.747 540.167 422.939C540.181 425.557 540.187 428.176 540.193 430.794C540.201 432.669 540.209 434.543 540.218 436.417C540.244 442.577 540.259 448.738 540.273 454.898C540.279 457.018 540.284 459.137 540.29 461.257C540.311 470.07 540.33 478.884 540.341 487.697C540.357 500.337 540.391 512.977 540.448 525.616C540.486 534.5 540.506 543.383 540.511 552.266C540.515 557.575 540.527 562.882 540.559 568.191C540.589 573.183 540.596 578.174 540.584 583.167C540.584 585 540.592 586.833 540.61 588.666C540.632 591.167 540.624 593.666 540.608 596.168C540.629 597.258 540.629 597.258 540.65 598.37C540.59 602.188 540.084 603.891 537.728 606.95C535.027 608.98 534.033 609.626 530.75 609.635C529.934 609.649 529.118 609.663 528.278 609.678C527.397 609.668 526.515 609.657 525.607 609.647C524.669 609.656 523.73 609.664 522.763 609.674C519.664 609.696 516.567 609.681 513.469 609.664C511.313 609.667 509.158 609.672 507.002 609.679C502.486 609.686 497.97 609.675 493.455 609.652C487.667 609.623 481.881 609.64 476.093 609.67C471.643 609.688 467.192 609.682 462.741 609.669C460.608 609.666 458.474 609.67 456.34 609.681C453.357 609.694 450.376 609.675 447.393 609.647C446.511 609.657 445.63 609.667 444.722 609.678C443.907 609.664 443.091 609.649 442.25 609.635C441.546 609.633 440.842 609.631 440.116 609.629C436.587 608.58 435.182 606.939 433 604C432.276 600.787 432.325 597.649 432.365 594.366C432.357 593.39 432.35 592.414 432.341 591.408C432.322 588.134 432.337 584.862 432.353 581.588C432.346 579.242 432.337 576.897 432.327 574.551C432.304 568.177 432.313 561.804 432.328 555.43C432.34 549.439 432.331 543.448 432.324 537.457C432.31 524.867 432.326 512.278 432.353 499.688C432.375 488.889 432.371 478.089 432.348 467.29C432.321 454.746 432.311 442.203 432.326 429.66C432.334 423.021 432.335 416.382 432.319 409.743C432.304 403.501 432.314 397.259 432.343 391.017C432.35 388.725 432.348 386.433 432.337 384.141C432.323 381.014 432.34 377.888 432.365 374.761C432.354 373.852 432.343 372.943 432.331 372.007C432.397 367.739 432.655 364.867 435.352 361.452C440.182 356.979 444.755 357.536 450.429 360.096Z" fill="#FCFCFC"/>
  <path d="M403 443C405.88 445.188 406.888 446.346 407.506 449.949C407.509 451.105 407.512 452.261 407.515 453.452C407.522 454.098 407.529 454.744 407.536 455.409C407.554 457.571 407.544 459.732 407.534 461.895C407.541 463.445 407.549 464.996 407.56 466.547C407.582 470.757 407.579 474.968 407.57 479.179C407.565 482.693 407.573 486.207 407.58 489.721C407.597 498.01 407.593 506.298 407.577 514.587C407.56 523.142 407.575 531.696 407.608 540.251C407.634 547.594 407.642 554.936 407.633 562.279C407.628 566.666 407.631 571.052 407.651 575.438C407.669 579.562 407.663 583.685 407.639 587.809C407.634 589.323 407.637 590.838 407.65 592.352C407.666 594.418 407.651 596.482 407.628 598.548C407.628 599.704 407.627 600.86 407.627 602.051C407 605 407 605 404.682 607.372C401.216 609.476 398.272 609.556 394.336 609.502C393.203 609.51 393.203 609.51 392.048 609.518C389.561 609.531 387.076 609.514 384.59 609.496C382.858 609.496 381.126 609.498 379.394 609.5C375.768 609.502 372.143 609.489 368.517 609.467C363.871 609.438 359.226 609.441 354.579 609.454C351.005 609.461 347.43 609.453 343.855 609.44C342.142 609.436 340.429 609.436 338.715 609.439C336.322 609.442 333.929 609.426 331.535 609.404C330.474 609.411 330.474 609.411 329.392 609.418C326.356 609.372 324.268 609.149 321.592 607.662C318.857 604.806 318.873 601.991 318.86 598.231C318.854 597.25 318.848 596.268 318.842 595.257C318.841 594.182 318.84 593.107 318.839 591.999C318.834 590.865 318.829 589.731 318.824 588.563C318.809 584.805 318.802 581.047 318.797 577.289C318.791 574.682 318.785 572.075 318.78 569.468C318.77 564.698 318.764 559.928 318.761 555.159C318.757 548.141 318.739 541.123 318.71 534.106C318.686 528.025 318.678 521.944 318.677 515.863C318.673 513.277 318.665 510.691 318.652 508.105C318.635 504.49 318.637 500.875 318.644 497.26C318.634 496.189 318.625 495.118 318.616 494.014C318.667 484.851 318.667 484.851 322 481C329.216 475.826 337.415 472.087 345.313 468.062C347.518 466.934 349.723 465.803 351.928 464.673C353.421 463.908 354.914 463.144 356.407 462.38C364.805 458.081 373.176 453.73 381.546 449.379C383.536 448.346 385.527 447.315 387.52 446.286C389.526 445.246 391.521 444.183 393.512 443.113C397.059 441.526 399.303 441.973 403 443Z" fill="#090908"/>
  <path d="M450.429 360.096C453.298 361.593 456.12 363.157 458.938 364.75C461.09 365.942 463.242 367.133 465.395 368.324C466.491 368.936 467.588 369.547 468.717 370.177C473.83 373.016 478.978 375.787 484.125 378.562C490.023 381.754 495.917 384.952 501.801 388.168C502.739 388.681 503.678 389.194 504.645 389.722C506.485 390.729 508.325 391.736 510.164 392.744C514.426 395.075 518.698 397.376 523.012 399.609C523.793 400.015 524.574 400.421 525.379 400.839C526.824 401.586 528.272 402.327 529.724 403.06C534.587 405.574 538.226 407.678 540 413C540.104 415.535 540.152 418.043 540.154 420.578C540.161 421.747 540.161 421.747 540.167 422.939C540.181 425.557 540.187 428.176 540.193 430.794C540.201 432.669 540.209 434.543 540.218 436.417C540.244 442.577 540.259 448.738 540.273 454.898C540.279 457.018 540.284 459.137 540.29 461.257C540.311 470.07 540.33 478.884 540.341 487.697C540.357 500.337 540.391 512.977 540.448 525.616C540.486 534.5 540.506 543.383 540.511 552.266C540.515 557.575 540.527 562.882 540.559 568.191C540.589 573.183 540.596 578.174 540.584 583.167C540.584 585 540.592 586.833 540.61 588.666C540.632 591.167 540.624 593.666 540.608 596.168C540.629 597.258 540.629 597.258 540.65 598.37C540.59 602.188 540.084 603.891 537.728 606.95C535.027 608.98 534.033 609.626 530.75 609.635C529.934 609.649 529.118 609.663 528.278 609.678C527.397 609.668 526.515 609.657 525.607 609.647C524.669 609.656 523.73 609.664 522.763 609.674C519.664 609.696 516.567 609.681 513.469 609.664C511.313 609.667 509.158 609.672 507.002 609.679C502.486 609.686 497.97 609.675 493.455 609.652C487.667 609.623 481.881 609.64 476.093 609.67C471.643 609.688 467.192 609.682 462.741 609.669C460.608 609.666 458.474 609.67 456.34 609.681C453.357 609.694 450.376 609.675 447.393 609.647C446.511 609.657 445.63 609.667 444.722 609.678C443.907 609.664 443.091 609.649 442.25 609.635C441.546 609.633 440.842 609.631 440.116 609.629C436.587 608.58 435.182 606.939 433 604C432.276 600.787 432.325 597.649 432.365 594.366C432.357 593.39 432.35 592.414 432.341 591.408C432.322 588.134 432.337 584.862 432.353 581.588C432.346 579.242 432.337 576.897 432.327 574.551C432.304 568.177 432.313 561.804 432.328 555.43C432.34 549.439 432.331 543.448 432.324 537.457C432.31 524.867 432.326 512.278 432.353 499.688C432.375 488.889 432.371 478.089 432.348 467.29C432.321 454.746 432.311 442.203 432.326 429.66C432.334 423.021 432.335 416.382 432.319 409.743C432.304 403.501 432.314 397.259 432.343 391.017C432.35 388.725 432.348 386.433 432.337 384.141C432.323 381.014 432.34 377.888 432.365 374.761C432.354 373.852 432.343 372.943 432.331 372.007C432.397 367.739 432.655 364.867 435.352 361.452C440.182 356.979 444.755 357.536 450.429 360.096ZM449 379C449 449.62 449 520.24 449 593C474.08 593 499.16 593 525 593C525 535.58 525 478.16 525 419C507.03 409.192 507.03 409.192 489 399.5C482.138 395.838 475.282 392.167 468.469 388.414C467.458 387.858 466.448 387.302 465.406 386.729C463.519 385.687 461.633 384.642 459.75 383.592C458.915 383.131 458.079 382.67 457.219 382.195C456.496 381.793 455.774 381.391 455.029 380.977C452.745 379.793 452.745 379.793 449 379Z" fill="#0A0A0A"/>
  <path d="M763 476C776.99 487.846 786.27 503.491 788 522C788.079 525.122 788.065 528.241 788.043 531.363C788.04 532.196 788.037 533.028 788.034 533.885C788.026 535.924 788.013 537.962 788 540C776.146 540.172 764.292 540.338 752.438 540.5C751.568 540.512 750.699 540.524 749.803 540.536C724.202 540.884 698.605 541.171 673 541C675.07 554.697 680.168 567.369 691.57 575.93C704.461 584.584 719.261 587.146 734.547 584.352C747.298 580.783 756.694 573.959 764 563C768.503 564.084 772.981 565.237 777.438 566.5C778.282 566.737 779.126 566.974 779.996 567.219C782 568 782 568 783 570C775.975 584.608 763.349 594.762 748.391 600.348C728.051 606.767 707.238 605.731 687.813 596.938C671.57 588.357 660.582 573.658 654.25 556.625C648.207 536.957 650.55 515.615 659.344 497.184C668.094 481.653 682.424 470.423 699.285 464.93C721.231 459.214 744.717 461.927 763 476ZM683.688 496.188C677.397 503.782 672.689 513.037 672 523C673.878 524.878 676.592 524.12 679.09 524.124C680.403 524.119 680.403 524.119 681.742 524.114C682.659 524.114 683.576 524.114 684.521 524.114C687.568 524.113 690.614 524.106 693.66 524.098C695.766 524.096 697.872 524.094 699.978 524.093C705.533 524.09 711.088 524.08 716.644 524.069C722.307 524.059 727.971 524.054 733.635 524.049C744.757 524.038 755.878 524.021 767 524C767.202 511.42 761.64 501.964 753.16 493.07C743.077 483.461 730.253 480.443 716.688 480.691C703.797 481.77 692.644 486.842 683.688 496.188Z" fill="#090909"/>
  <path d="M1228.28 481.336C1241.52 494.296 1248.93 512.12 1249.24 530.571C1249.31 550.71 1243.98 569.19 1229.97 584.129C1217.13 596.95 1199.5 604.107 1181.44 604.381C1161.07 604.342 1143.14 599.827 1128.2 585.258C1127.47 584.513 1126.75 583.768 1126 583C1125.31 582.337 1124.61 581.675 1123.89 580.992C1112.88 569.791 1106.9 553.5 1106 538C1105.96 537.318 1105.92 536.636 1105.88 535.934C1105.3 516.508 1112.37 497.356 1125.71 483.16C1154.67 455.829 1198.53 455.39 1228.28 481.336ZM1140 497C1129.15 509.849 1125.92 524.565 1127 541C1128.92 554.732 1135.5 567.487 1146.57 575.969C1159.07 584.376 1172.34 587.638 1187.28 585.539C1201.24 582.714 1212.78 575.607 1220.81 563.75C1225.57 555.787 1228.39 547.252 1229 538C1229.08 537.029 1229.08 537.029 1229.16 536.039C1229.78 522.138 1225.51 508.885 1216.67 498.18C1206.08 487.022 1193.72 481.208 1178.38 480.75C1164.09 480.926 1149.78 486.374 1140 497Z" fill="#090909"/>
  <path d="M903 475C903.655 475.545 904.31 476.091 904.984 476.652C910.981 482.098 914.665 489.017 916 497C913.397 497.839 910.793 498.671 908.188 499.5C907.45 499.738 906.712 499.977 905.951 500.223C902.867 501.199 900.255 502 897 502C896.671 501.276 896.343 500.551 896.004 499.805C891.619 490.892 886.685 486.496 877.375 483.125C866.583 480.301 854.562 480.843 844.719 486.254C840.413 489.117 837.807 491.915 836.336 496.922C835.536 501.872 836.362 505.725 838.625 510.25C847.486 520.511 864.579 522.204 877.087 524.927C892.391 528.278 905.76 532.526 915 546C919.879 555.211 920.473 565.215 917.875 575.25C913.672 587.349 905.601 593.932 894.551 599.605C885.365 603.213 876.519 604.534 866.688 604.437C865.598 604.43 864.509 604.422 863.386 604.415C847.844 604.098 833.467 599.83 821.852 589.051C816.613 583.248 812.54 576.701 811 569C825.738 563 825.738 563 831 563C831.268 563.641 831.536 564.281 831.812 564.941C836.015 574.217 841.532 579.389 850.922 583.273C861.313 586.907 875.763 586.722 885.797 582.273C890.787 579.389 894.7 576.381 897 571C898.451 564.593 897.786 559.954 894.375 554.312C889.118 549.193 882.231 547.265 875.25 545.562C874.437 545.355 873.623 545.147 872.785 544.934C868.445 543.832 864.094 542.781 859.738 541.746C844.204 538.026 828.725 534.252 819.312 520.187C814.253 511.627 813.663 501.729 815.582 492.07C818.664 482.136 825.862 474.614 834.633 469.242C855.765 458.153 884.498 459.136 903 475Z" fill="#090909"/>
  <path d="M963 429C969.6 429 976.2 429 983 429C983.33 440.88 983.66 452.76 984 465C1002.32 465.495 1002.32 465.495 1021 466C1021 471.61 1021 477.22 1021 483C1020 484 1020 484 1016.49 484.114C1014.93 484.113 1013.37 484.108 1011.81 484.098C1010.99 484.096 1010.17 484.095 1009.32 484.093C1006.7 484.088 1004.07 484.075 1001.44 484.062C999.66 484.057 997.882 484.053 996.104 484.049C991.736 484.038 987.368 484.021 983 484C983.061 494.945 983.138 505.889 983.236 516.833C983.28 521.916 983.32 526.998 983.346 532.081C983.373 536.989 983.413 541.897 983.463 546.806C983.48 548.674 983.491 550.543 983.498 552.413C983.507 555.038 983.535 557.663 983.568 560.289C983.566 561.055 983.565 561.821 983.563 562.61C983.661 568.287 984.477 574.208 988.416 578.567C993.309 582.801 997.412 583.193 1003.62 583.188C1004.34 583.188 1005.05 583.189 1005.79 583.189C1011.11 583.136 1015.87 582.467 1021 581C1021.34 583.041 1021.67 585.083 1022 587.125C1022.19 588.262 1022.37 589.399 1022.56 590.57C1022.97 593.761 1023.08 596.788 1023 600C1010.48 605.61 995.82 605.078 983 601C974.352 597.192 968.707 591.657 965.188 582.875C963.013 576.733 962.858 570.584 962.886 564.149C962.886 563.28 962.886 562.411 962.886 561.516C962.887 558.659 962.894 555.802 962.902 552.945C962.904 550.958 962.906 548.972 962.907 546.985C962.91 541.767 962.92 536.549 962.931 531.331C962.942 526.002 962.946 520.673 962.951 515.344C962.962 504.896 962.979 494.448 963 484C954.75 484 946.5 484 938 484C937.67 478.06 937.34 472.12 937 466C945.58 466 954.16 466 963 466C963 453.79 963 441.58 963 429Z" fill="#090908"/>
  <path d="M1055 466C1061.6 466 1068.2 466 1075 466C1075 510.55 1075 555.1 1075 601C1068.4 601 1061.8 601 1055 601C1055 556.45 1055 511.9 1055 466Z" fill="#080807"/>
  <path d="M1070 412C1073.76 413.779 1075.51 415.292 1077.88 418.687C1079.32 422.939 1079.72 426.557 1079 431C1076.81 435.383 1074.6 438.201 1070 440C1064.99 440.68 1061.17 440.554 1056.56 438.375C1052.62 434.724 1050.87 431.349 1050.62 426C1050.87 420.651 1052.62 417.276 1056.56 413.625C1061.18 411.443 1064.98 411.2 1070 412Z" fill="#0A0A0A"/>
</svg>
