<svg xmlns="http://www.w3.org/2000/svg" viewBox="300 344 290 300" fill="none">
<path d="M449 379C453.444 380.481 456.896 381.869 460.938 384.055C462.634 384.968 462.634 384.968 464.365 385.899C465.577 386.558 466.788 387.216 468 387.875C469.258 388.555 470.517 389.234 471.775 389.913C474.933 391.618 478.086 393.329 481.239 395.043C482.871 395.93 484.504 396.816 486.137 397.702C499.12 404.75 512.056 411.881 525 419C525 476.42 525 533.84 525 593C499.92 593 474.84 593 449 593C449 522.38 449 451.76 449 379Z" fill="#FCFCFC"/>
<path d="M402 442C404.671 443.624 404.671 443.624 407 446C407.626 448.964 407.626 448.964 407.628 452.49C407.635 453.14 407.642 453.79 407.65 454.46C407.667 456.636 407.649 458.81 407.631 460.986C407.636 462.547 407.644 464.107 407.653 465.668C407.671 469.906 407.658 474.143 407.639 478.381C407.622 482.814 407.631 487.247 407.636 491.68C407.641 499.125 407.625 506.569 407.597 514.014C407.565 522.623 407.565 531.232 407.582 539.842C407.598 548.121 407.591 556.4 407.574 564.679C407.567 568.204 407.568 571.728 407.576 575.253C407.583 579.403 407.571 583.553 407.544 587.703C407.537 589.227 407.537 590.751 407.544 592.274C407.553 594.353 407.537 596.431 407.515 598.51C407.512 599.673 407.509 600.837 407.506 602.036C406.889 605.648 405.912 606.833 403 609C400.287 609.4 397.978 609.558 395.266 609.533C394.491 609.542 393.717 609.551 392.919 609.56C390.362 609.582 387.807 609.575 385.25 609.566C383.472 609.572 381.693 609.578 379.915 609.585C376.189 609.596 372.464 609.591 368.738 609.576C363.963 609.559 359.189 609.583 354.413 609.618C350.742 609.64 347.07 609.638 343.398 609.63C341.638 609.629 339.877 609.636 338.116 609.651C335.655 609.668 333.196 609.654 330.734 609.631C329.643 609.649 329.643 609.649 328.53 609.667C325.165 609.603 323.265 609.197 320.548 607.174C318.201 602.361 318.451 597.876 318.498 592.588C318.493 591.434 318.487 590.281 318.482 589.093C318.469 585.28 318.486 581.469 318.504 577.656C318.504 575.007 318.502 572.358 318.499 569.71C318.497 564.158 318.51 558.607 318.533 553.055C318.56 546.642 318.562 540.23 318.55 533.817C318.539 527.641 318.545 521.465 318.56 515.289C318.564 512.664 318.564 510.039 318.561 507.414C318.558 503.747 318.574 500.08 318.596 496.412C318.591 495.325 318.587 494.238 318.582 493.118C318.674 483.871 318.674 483.871 322 480C324.359 478.385 324.359 478.385 327.18 476.977C328.239 476.438 329.299 475.899 330.391 475.344C331.541 474.777 332.69 474.21 333.875 473.625C335.08 473.017 336.284 472.408 337.488 471.798C340.022 470.514 342.56 469.237 345.1 467.964C350.85 465.077 356.559 462.111 362.271 459.148C364.116 458.192 365.964 457.24 367.812 456.289C373.028 453.603 378.228 450.899 383.359 448.055C384.138 447.626 384.916 447.198 385.718 446.757C387.092 445.996 388.459 445.224 389.817 444.436C394.037 442.104 397.207 441.327 402 442Z" fill="#090909"/>
<path d="M446 358C449.086 359.278 449.086 359.278 452.375 361.078C453.271 361.561 453.271 361.561 454.185 362.055C456.13 363.108 458.065 364.179 460 365.25C461.362 365.991 462.724 366.732 464.086 367.471C467.46 369.304 470.826 371.151 474.189 373.003C477.569 374.863 480.957 376.708 484.343 378.556C486.035 379.479 487.726 380.404 489.416 381.331C499.267 386.723 509.198 391.966 519.126 397.215C519.794 397.568 520.462 397.921 521.15 398.285C522.971 399.25 524.794 400.213 526.617 401.176C527.733 401.778 528.85 402.38 530 403C530.62 403.311 531.241 403.622 531.88 403.943C536.001 406.098 538.056 407.79 540 412C540.287 414.698 540.414 417.162 540.394 419.857C540.404 421.034 540.404 421.034 540.413 422.235C540.429 424.861 540.425 427.487 540.42 430.113C540.427 431.997 540.436 433.882 540.446 435.766C540.468 440.882 540.471 445.997 540.469 451.113C540.469 455.382 540.477 459.652 540.486 463.921C540.505 473.992 540.508 484.063 540.501 494.134C540.494 504.527 540.517 514.92 540.554 525.314C540.585 534.235 540.596 543.157 540.592 552.079C540.59 557.408 540.596 562.737 540.62 568.067C540.643 573.077 540.641 578.087 540.62 583.097C540.617 584.936 540.622 586.776 540.636 588.615C540.655 591.125 540.642 593.633 540.621 596.143C540.634 596.872 540.646 597.601 540.659 598.353C540.593 602.173 540.085 603.89 537.73 606.952C535.011 608.992 534.009 609.625 530.705 609.628C529.879 609.641 529.054 609.653 528.203 609.666C527.311 609.655 526.419 609.643 525.5 609.631C524.075 609.642 524.075 609.642 522.62 609.653C519.485 609.67 516.351 609.65 513.215 609.629C511.034 609.63 508.854 609.632 506.673 609.636C502.106 609.639 497.54 609.624 492.972 609.597C487.115 609.563 481.259 609.569 475.402 609.588C470.901 609.598 466.4 609.589 461.899 609.574C459.739 609.569 457.579 609.569 455.419 609.576C452.403 609.581 449.387 609.561 446.371 609.533C445.477 609.54 444.583 609.546 443.661 609.553C442.838 609.54 442.016 609.528 441.168 609.515C440.455 609.512 439.743 609.509 439.009 609.506C435.87 608.715 434.846 607.675 433 605C432.404 601.804 432.456 598.647 432.485 595.403C432.478 594.419 432.471 593.435 432.464 592.421C432.446 589.115 432.456 585.809 432.467 582.502C432.459 580.135 432.451 577.768 432.44 575.402C432.42 569.635 432.419 563.868 432.427 558.101C432.433 553.414 432.432 548.726 432.426 544.039C432.425 543.372 432.424 542.706 432.423 542.018C432.421 540.664 432.419 539.309 432.417 537.954C432.401 525.247 432.41 512.54 432.426 499.833C432.441 488.207 432.427 476.581 432.398 464.954C432.368 453.018 432.357 441.081 432.367 429.145C432.368 427.795 432.369 426.445 432.37 425.094C432.37 424.43 432.371 423.766 432.371 423.082C432.373 418.4 432.364 413.72 432.349 409.039C432.331 402.737 432.337 396.436 432.361 390.135C432.366 387.82 432.363 385.505 432.35 383.19C432.334 380.034 432.349 376.879 432.372 373.724C432.354 372.343 432.354 372.343 432.336 370.934C432.402 366.427 432.527 364.596 435.414 360.955C439.233 358.068 441.204 357.626 446 358ZM449 379C449 449.62 449 520.24 449 593C474.08 593 499.16 593 525 593C525 535.58 525 478.16 525 419C507.03 409.192 507.03 409.192 489 399.5C482.138 395.838 475.282 392.167 468.469 388.414C467.458 387.858 466.447 387.302 465.406 386.728C463.519 385.687 461.633 384.642 459.75 383.592C458.915 383.131 458.079 382.67 457.219 382.195C456.496 381.793 455.774 381.391 455.029 380.977C452.745 379.793 452.745 379.793 449 379Z" fill="#0B0B0A"/>
</svg>
