<svg xmlns="http://www.w3.org/2000/svg" viewBox="300 344 290 300" fill="none">
<path fill="#ffffff" d="M410 446C413.096 447.541 414.217 448.151 416 451C416.928 456.174 416.789 461.339 416.729 466.575C416.732 468.186 416.738 469.798 416.746 471.41C416.76 475.782 416.738 480.153 416.707 484.525C416.681 489.098 416.686 493.672 416.687 498.246C416.684 505.924 416.658 513.602 416.617 521.281C416.57 530.163 416.554 539.045 416.557 547.928C416.558 556.47 416.543 565.011 416.518 573.552C416.508 577.189 416.502 580.826 416.5 584.464C416.497 588.743 416.479 593.023 416.449 597.302C416.44 598.875 416.437 600.448 416.438 602.02C416.44 604.163 416.423 606.304 416.401 608.447C416.396 609.647 416.391 610.847 416.386 612.084C416 615 416 615 414.705 616.886C411.68 618.862 408.127 618.414 404.629 618.388C403.348 618.396 403.348 618.396 402.041 618.404C399.215 618.417 396.389 618.409 393.562 618.398C391.601 618.4 389.639 618.403 387.678 618.407C383.565 618.412 379.453 618.405 375.341 618.391C370.064 618.374 364.789 618.384 359.512 618.402C355.461 618.413 351.411 618.409 347.36 618.401C345.414 618.399 343.468 618.402 341.523 618.409C338.805 618.416 336.088 618.405 333.371 618.388C332.564 618.394 331.756 618.4 330.924 618.407C325.486 618.344 325.486 618.344 323.294 616.791C321.571 614.407 321.618 612.896 321.605 609.965C321.594 608.925 321.583 607.885 321.571 606.813C321.574 605.672 321.577 604.531 321.58 603.356C321.567 601.553 321.567 601.553 321.554 599.714C321.535 596.416 321.529 593.119 321.531 589.821C321.531 587.068 321.523 584.314 321.514 581.561C321.495 575.064 321.492 568.567 321.499 562.07C321.506 555.37 321.483 548.67 321.446 541.97C321.415 536.216 321.404 530.462 321.407 524.709C321.41 521.273 321.404 517.837 321.38 514.401C321.353 510.568 321.367 506.736 321.385 502.903C321.371 501.766 321.358 500.629 321.344 499.458C321.427 491.757 321.427 491.757 324.384 487.85C326.898 486.072 329.296 484.573 332.07 483.238C333.039 482.765 334.007 482.291 335.005 481.803C336.035 481.311 337.064 480.819 338.125 480.312C340.309 479.245 342.493 478.176 344.676 477.105C345.754 476.579 346.833 476.052 347.944 475.509C352.106 473.454 356.214 471.305 360.312 469.125C365.839 466.191 371.376 463.28 376.934 460.406C377.537 460.094 378.141 459.782 378.763 459.46C381.758 457.912 384.754 456.365 387.751 454.821C394.495 451.343 394.495 451.343 401.105 447.621C404.503 445.718 406.173 445.267 410 446Z"/>
<path fill="#0a0a0b" d="M457 359C461.006 360.646 464.766 362.673 468.562 364.75C469.665 365.338 470.768 365.927 471.904 366.533C475.278 368.339 478.641 370.166 482 372C482.971 372.528 483.942 373.056 484.942 373.6C488.574 375.577 492.204 377.557 495.828 379.548C502.341 383.121 508.905 386.582 515.5 390C523.381 394.095 531.243 398.224 539.062 402.438C539.973 402.922 540.883 403.406 541.82 403.904C542.675 404.368 543.53 404.831 544.41 405.309C545.154 405.709 545.898 406.109 546.664 406.521C552.881 410.457 552.881 410.457 555 413C555.601 416.004 555.806 418.206 555.748 421.205C555.756 422.027 555.764 422.85 555.772 423.697C555.792 426.45 555.768 429.202 555.745 431.955C555.749 433.93 555.757 435.904 555.767 437.879C555.785 443.241 555.767 448.601 555.74 453.963C555.717 459.571 555.726 465.178 555.73 470.786C555.731 480.202 555.709 489.618 555.672 499.034C555.63 509.926 555.623 520.818 555.635 531.71C555.647 542.183 555.636 552.655 555.613 563.127C555.604 567.586 555.602 572.046 555.606 576.506C555.61 581.755 555.594 587.003 555.562 592.252C555.554 594.181 555.552 596.11 555.557 598.038C555.564 600.666 555.546 603.294 555.521 605.922C555.533 607.072 555.533 607.072 555.544 608.246C555.488 611.659 555.241 613.661 553.24 616.473C550.762 618.162 549.6 618.502 546.636 618.508C545.336 618.525 545.336 618.525 544.01 618.542C542.596 618.53 542.596 618.53 541.154 618.518C539.656 618.528 539.656 618.528 538.128 618.539C534.824 618.556 531.522 618.545 528.219 618.531C525.925 618.534 523.631 618.538 521.337 618.543C516.528 618.549 511.72 618.54 506.912 618.522C500.744 618.499 494.577 618.512 488.41 618.536C483.673 618.55 478.936 618.546 474.198 618.535C471.924 618.533 469.65 618.536 467.376 618.545C464.199 618.555 461.023 618.54 457.846 618.518C456.903 618.526 455.961 618.534 454.99 618.542C454.123 618.531 453.257 618.52 452.364 618.508C451.238 618.506 451.238 618.506 450.09 618.503C446.876 617.729 445.869 616.75 444 614C443.4 610.691 443.452 607.417 443.479 604.062C443.471 603.041 443.463 602.02 443.455 600.968C443.435 597.537 443.443 594.107 443.451 590.676C443.442 588.221 443.432 585.765 443.42 583.31C443.396 577.326 443.391 571.343 443.395 565.359C443.399 560.496 443.395 555.633 443.387 550.77C443.386 550.078 443.384 549.386 443.383 548.673C443.381 547.268 443.378 545.862 443.376 544.457C443.354 531.273 443.358 518.09 443.371 504.907C443.381 492.844 443.358 480.781 443.32 468.718C443.282 456.334 443.265 443.95 443.273 431.566C443.277 424.612 443.272 417.659 443.243 410.705C443.217 404.168 443.222 397.631 443.248 391.093C443.253 388.691 443.247 386.288 443.231 383.886C443.21 380.612 443.226 377.34 443.251 374.065C443.237 373.11 443.222 372.154 443.207 371.17C443.309 364.924 443.309 364.924 445.275 362.294C449.207 358.845 451.894 358.108 457 359ZM460 380C460 453.26 460 526.52 460 602C486.4 602 512.8 602 540 602C540 542.6 540 483.2 540 422C531.702 417.258 523.486 412.603 515 408.25C507.199 404.215 499.45 400.1 491.75 395.875C484.605 391.959 477.448 388.069 470.25 384.25C469.445 383.819 468.641 383.389 467.811 382.945C464.109 380.783 464.109 380.783 460 380Z"/>
<path fill="#0a0a0b" d="M460 380C464.018 381.339 467.194 382.482 470.844 384.398C471.749 384.872 472.654 385.345 473.586 385.832C474.548 386.341 475.509 386.85 476.5 387.375C477.513 387.907 478.526 388.44 479.57 388.988C487.32 393.075 495.015 397.259 502.691 401.48C510.533 405.78 518.454 409.916 526.414 413.992C527.319 414.459 528.224 414.925 529.156 415.406C529.948 415.812 530.741 416.217 531.557 416.635C532.363 417.085 533.169 417.536 534 418C535.026 418.537 536.051 419.075 537.108 419.628C540 422 540 422 540.738 425.303C540.763 426.64 540.755 427.978 540.722 429.315C540.727 430.053 540.732 430.791 540.737 431.552C540.747 434.028 540.714 436.502 540.681 438.978C540.679 440.752 540.68 442.525 540.684 444.299C540.686 449.118 540.65 453.935 540.608 458.753C540.571 463.787 540.567 468.821 540.56 473.855C540.542 483.389 540.492 492.923 540.432 502.457C540.353 515.339 540.32 528.222 540.285 541.104C540.229 561.403 540.109 581.701 540 602C513.6 602 487.2 602 460 602C460 528.74 460 455.48 460 380Z"/>
</svg>
